{
	"asset":{
		"generator":"Khronos glTF Blender I/O v3.5.30",
		"version":"2.0"
	},
	"scene":0,
	"scenes":[
		{
			"name":"Scene",
			"nodes":[
				0,
				1
			]
		}
	],
	"nodes":[
		{
			"mesh":0,
			"name":"cap",
			"scale":[
				1,
				0.25,
				1
			],
			"translation":[
				0,
				0.800000011920929,
				0
			]
		},
		{
			"mesh":1,
			"name":"body",
			"scale":[
				1,
				0.75,
				1
			],
			"translation":[
				0,
				-0.30000001192092896,
				0
			]
		}
	],
	"meshes":[
		{
			"name":"Cube.002",
			"primitives":[
				{
					"attributes":{
						"POSITION":0,
						"TEXCOORD_0":1,
						"NORMAL":2
					},
					"indices":3
				}
			]
		},
		{
			"name":"Cube.003",
			"primitives":[
				{
					"attributes":{
						"POSITION":4,
						"TEXCOORD_0":5,
						"NORMAL":6
					},
					"indices":7
				}
			]
		}
	],
	"accessors":[
		{
			"bufferView":0,
			"componentType":5126,
			"count":129,
			"max":[
				1,
				1,
				1
			],
			"min":[
				-1,
				-1,
				-1
			],
			"type":"VEC3"
		},
		{
			"bufferView":1,
			"componentType":5126,
			"count":129,
			"type":"VEC2"
		},
		{
			"bufferView":2,
			"componentType":5126,
			"count":129,
			"type":"VEC3"
		},
		{
			"bufferView":3,
			"componentType":5123,
			"count":564,
			"type":"SCALAR"
		},
		{
			"bufferView":4,
			"componentType":5126,
			"count":129,
			"max":[
				1,
				1,
				1
			],
			"min":[
				-1,
				-1,
				-1
			],
			"type":"VEC3"
		},
		{
			"bufferView":5,
			"componentType":5126,
			"count":129,
			"type":"VEC2"
		},
		{
			"bufferView":6,
			"componentType":5126,
			"count":129,
			"type":"VEC3"
		},
		{
			"bufferView":7,
			"componentType":5123,
			"count":564,
			"type":"SCALAR"
		}
	],
	"bufferViews":[
		{
			"buffer":0,
			"byteLength":1548,
			"byteOffset":0,
			"target":34962
		},
		{
			"buffer":0,
			"byteLength":1032,
			"byteOffset":1548,
			"target":34962
		},
		{
			"buffer":0,
			"byteLength":1548,
			"byteOffset":2580,
			"target":34962
		},
		{
			"buffer":0,
			"byteLength":1128,
			"byteOffset":4128,
			"target":34963
		},
		{
			"buffer":0,
			"byteLength":1548,
			"byteOffset":5256,
			"target":34962
		},
		{
			"buffer":0,
			"byteLength":1032,
			"byteOffset":6804,
			"target":34962
		},
		{
			"buffer":0,
			"byteLength":1548,
			"byteOffset":7836,
			"target":34962
		},
		{
			"buffer":0,
			"byteLength":1128,
			"byteOffset":9384,
			"target":34963
		}
	],
	"buffers":[
		{
			"byteLength":10512,
			"uri":"data:application/octet-stream;base64,"
		}
	]
}
